<?xml version="1.0" encoding="UTF-8"?>
<!DOCTYPE svg PUBLIC "-//W3C//DTD SVG 1.1//EN" "http://www.w3.org/Graphics/SVG/1.1/DTD/svg11.dtd">
<!-- Creator: CorelDRAW X8 -->
<svg xmlns="http://www.w3.org/2000/svg" xml:space="preserve" width="56.9806mm" height="57.0652mm" version="1.1" shape-rendering="geometricPrecision" text-rendering="geometricPrecision" image-rendering="optimizeQuality" fill-rule="evenodd" clip-rule="evenodd"
viewBox="0 0 5698 5707"
 xmlns:xlink="http://www.w3.org/1999/xlink">
 <g id="Camada_x0020_1">
  <metadata id="CorelCorpID_0Corel-Layer"/>
  <g id="_1662671477888">
   <path fill="white" d="M1946 3567c0,0 23,399 190,633 166,235 347,412 411,593 64,181 79,446 39,559 -39,115 -222,354 -222,354l1544 0c0,0 -356,-177 -367,-442 -11,-264 94,-703 173,-889 79,-186 742,-851 742,-851 0,0 -360,134 -687,350 -326,215 -441,249 -494,13 -54,-235 -13,-1208 -13,-1208 0,0 -167,860 -265,958 -98,98 -239,-38 -388,-392 -149,-354 -166,-380 -166,-380 0,0 -24,467 245,789 269,322 320,324 258,474 -62,151 -151,300 -348,245 -194,-56 -445,-320 -652,-806z"/>
   <circle fill="white" cx="2611" cy="2630" r="719"/>
   <circle fill="white" cx="1892" cy="3654" r="350"/>
   <circle fill="white" cx="632" cy="3349" r="350"/>
   <circle fill="white" cx="1131" cy="4027" r="350"/>
   <circle fill="white" cx="1300" cy="3304" r="218"/>
   <circle fill="white" cx="1199" cy="2756" r="218"/>
   <circle fill="white" cx="3498" cy="2212" r="218"/>
   <circle fill="white" cx="4458" cy="3526" r="218"/>
   <circle fill="white" cx="3701" cy="3394" r="218"/>
   <circle fill="white" cx="5222" cy="3324" r="218"/>
   <circle fill="white" cx="3859" cy="1436" r="218"/>
   <circle fill="white" cx="2637" cy="218" r="218"/>
   <circle fill="white" cx="1378" cy="886" r="218"/>
   <circle fill="white" cx="2468" cy="1099" r="218"/>
   <circle fill="white" cx="5186" cy="2012" r="218"/>
   <circle fill="white" cx="4119" cy="2023" r="301"/>
   <circle fill="white" cx="1666" cy="2999" r="186"/>
   <circle fill="white" cx="1598" cy="2539" r="134"/>
   <circle fill="white" cx="3441" cy="2974" r="134"/>
   <circle fill="white" cx="4119" cy="3298" r="100"/>
   <circle fill="white" cx="4019" cy="3571" r="100"/>
   <circle fill="white" cx="4420" cy="3889" r="100"/>
   <circle fill="white" cx="5113" cy="3690" r="100"/>
   <circle fill="white" cx="4420" cy="2458" r="134"/>
   <circle fill="white" cx="4458" cy="3040" r="134"/>
   <circle fill="white" cx="4834" cy="3769" r="134"/>
   <circle fill="white" cx="4778" cy="3289" r="134"/>
   <circle fill="white" cx="5565" cy="2861" r="134"/>
   <circle fill="white" cx="5305" cy="1592" r="134"/>
   <circle fill="white" cx="5484" cy="2368" r="134"/>
   <circle fill="white" cx="4710" cy="2099" r="134"/>
   <circle fill="white" cx="4253" cy="1218" r="134"/>
   <circle fill="white" cx="2552" cy="1634" r="134"/>
   <circle fill="white" cx="1892" cy="1191" r="134"/>
   <circle fill="white" cx="2955" cy="1020" r="134"/>
   <circle fill="white" cx="2818" cy="615" r="134"/>
   <circle fill="white" cx="3115" cy="265" r="134"/>
   <circle fill="white" cx="4189" cy="749" r="134"/>
   <circle fill="white" cx="4554" cy="965" r="134"/>
   <circle fill="white" cx="2106" cy="1570" r="134"/>
   <circle fill="white" cx="534" cy="3921" r="134"/>
   <circle fill="white" cx="1082" cy="2313" r="186"/>
   <circle fill="white" cx="1300" cy="1404" r="186"/>
   <circle fill="white" cx="184" cy="2035" r="186"/>
   <circle fill="white" cx="1598" cy="1963" r="350"/>
   <circle fill="white" cx="3202" cy="1592" r="350"/>
   <circle fill="white" cx="2016" cy="615" r="350"/>
   <circle fill="white" cx="3481" cy="707" r="350"/>
   <circle fill="white" cx="3955" cy="2756" r="350"/>
   <circle fill="white" cx="4942" cy="2673" r="350"/>
   <circle fill="white" cx="4746" cy="1500" r="350"/>
   <circle fill="white" cx="781" cy="1739" r="350"/>
   <circle fill="white" cx="534" cy="2603" r="350"/>
  </g>
 </g>
</svg>
